<?xml version="1.0" encoding="utf-8"?>
<!-- Generator: Adobe Illustrator 16.0.0, SVG Export Plug-In . SVG Version: 6.00 Build 0)  -->
<!DOCTYPE svg PUBLIC "-//W3C//DTD SVG 1.1//EN" "http://www.w3.org/Graphics/SVG/1.1/DTD/svg11.dtd">
<svg version="1.1"
	 id="svg2" xmlns:dc="http://purl.org/dc/elements/1.1/" xmlns:cc="http://creativecommons.org/ns#" xmlns:rdf="http://www.w3.org/1999/02/22-rdf-syntax-ns#" xmlns:svg="http://www.w3.org/2000/svg" xmlns:sodipodi="http://sodipodi.sourceforge.net/DTD/sodipodi-0.dtd" xmlns:inkscape="http://www.inkscape.org/namespaces/inkscape"
	 xmlns="http://www.w3.org/2000/svg" xmlns:xlink="http://www.w3.org/1999/xlink" x="0px" y="0px" width="545.817px" height="509px"
	 viewBox="0 -4.834 545.817 509" enable-background="new 0 -4.834 545.817 509" xml:space="preserve">
<path fill="none" stroke="#000000" stroke-width="16" stroke-miterlimit="3.2" d="M522.131,370.313
	c-5.388-11.787-35.568-4.797-68.546,10.275c-32.975,15.07-54.093,32.888-48.705,44.673c5.389,11.788,32.296,9.285,65.271-5.787
	S527.52,382.101,522.131,370.313z"/>
<image overflow="visible" enable-background="new    " width="640" height="654" xlink:href="spring.png"  transform="matrix(0.7021 -0.0407 0.0407 0.7021 1488.5181 109.2617)">
</image>
<sodipodi:namedview  showgrid="false" id="base" pagecolor="#ffffff" bordercolor="#666666" borderopacity="1.0" inkscape:zoom="1" inkscape:cx="424.44042" inkscape:cy="523.70938" inkscape:document-units="px" inkscape:pageshadow="2" inkscape:current-layer="layer2" inkscape:pageopacity="0.0" inkscape:window-width="1440" inkscape:window-height="852" inkscape:window-x="0" inkscape:window-y="0" inkscape:window-maximized="1">
	</sodipodi:namedview>
<g id="layer3" inkscape:label="img" inkscape:groupmode="layer">
</g>
<g id="layer2" inkscape:label="bg" inkscape:groupmode="layer">
	
		<path id="path4265" inkscape:connector-curvature="0" sodipodi:nodetypes="cc" inkscape:export-xdpi="90" inkscape:export-ydpi="90" fill="none" stroke="#000000" stroke-width="5" stroke-miterlimit="3.2" d="
		M15.982,430.389L316.996,251.92"/>
	
		<path id="path4269" inkscape:connector-curvature="0" sodipodi:nodetypes="cc" inkscape:export-xdpi="90" inkscape:export-ydpi="90" fill="none" stroke="#000000" stroke-width="5" stroke-miterlimit="3.2" d="
		M315.968,252.434l191.73,236.762"/>
	
		<path id="path4267" inkscape:connector-curvature="0" sodipodi:nodetypes="cc" inkscape:export-xdpi="90" inkscape:export-ydpi="90" fill="none" stroke="#000000" stroke-width="5" stroke-miterlimit="3.2" d="
		M315.968,252.434L270.837,12.281"/>
</g>
<path id="path3453" inkscape:connector-curvature="0" inkscape:export-xdpi="90" inkscape:export-ydpi="90" fill="none" stroke="#000000" stroke-width="0.8" stroke-miterlimit="3.2" stroke-opacity="0" d="
	M275.875,3.542L4.467,431.211"/>
<path id="path3455" inkscape:connector-curvature="0" sodipodi:nodetypes="cc" inkscape:export-xdpi="90" inkscape:export-ydpi="90" fill="none" stroke="#000000" stroke-width="18" stroke-linecap="round" stroke-miterlimit="3.2" d="
	M270.837,7.331L9.917,428.848"/>
<path id="path4257_4_" inkscape:connector-curvature="0" inkscape:export-xdpi="90" inkscape:export-ydpi="90" fill="none" stroke="#000000" stroke-width="33" stroke-miterlimit="3.2" d="
	M291.912,29.244"/>
<path id="path4257_1_" inkscape:connector-curvature="0" inkscape:export-xdpi="90" inkscape:export-ydpi="90" fill="none" stroke="#000000" stroke-width="33" stroke-miterlimit="3.2" d="
	M278.65,2"/>
<path id="path4257_3_" inkscape:connector-curvature="0" inkscape:export-xdpi="90" inkscape:export-ydpi="90" fill="none" stroke="#000000" stroke-width="33" stroke-miterlimit="3.2" d="
	M515.718,490.428"/>
<path id="path4257_2_" inkscape:connector-curvature="0" inkscape:export-xdpi="90" inkscape:export-ydpi="90" fill="none" stroke="#000000" stroke-width="33" stroke-miterlimit="3.2" d="
	M471.101,391.426"/>
<path id="path4259_2_" inkscape:connector-curvature="0" sodipodi:nodetypes="cc" inkscape:export-xdpi="90" inkscape:export-ydpi="90" fill="none" stroke="#000000" stroke-width="15" stroke-miterlimit="3.2" d="
	M513.869,486.213"/>
<path id="path4259_1_" inkscape:connector-curvature="0" sodipodi:nodetypes="cc" inkscape:export-xdpi="90" inkscape:export-ydpi="90" fill="none" stroke="#000000" stroke-width="15" stroke-miterlimit="3.2" d="
	M397.595,251.92"/>
<path id="path4261" inkscape:connector-curvature="0" inkscape:export-xdpi="90" inkscape:export-ydpi="90" fill="none" stroke="#000000" stroke-width="18" stroke-linecap="round" stroke-miterlimit="3.2" d="
	M9.917,428.848l497.784,66.653"/>
<g>
	
		<image overflow="visible" enable-background="new    " width="640" height="654" xlink:href="spring.png"  transform="matrix(0.9999 0 0 0.9999 -8205.9609 -8122.9595)">
	</image>
	
		<image overflow="visible" enable-background="new    " width="640" height="654" xlink:href="spring.png"  transform="matrix(0.9999 0 0 0.9999 -8205.9609 -8122.9595)">
	</image>
</g>
<line fill="none" stroke="#000000" stroke-width="15" stroke-miterlimit="3.2" x1="270.837" y1="7.331" x2="379.818" y2="228.331"/>
<line fill="none" stroke="#000000" stroke-width="33" stroke-linecap="round" stroke-miterlimit="3.2" x1="379.818" y1="228.331" x2="507.701" y2="489.194"/>
<path fill="none" stroke="#000000" stroke-width="16" stroke-miterlimit="3.2" d="M303.956,77.372
	c32.78-15.493,63.53-19.214,68.684-8.312c5.152,10.902-17.741,28.55-50.521,44.043c-32.781,15.493-63.035,22.962-68.187,12.061
	C248.778,114.262,271.175,92.865,303.956,77.372z"/>
<path fill="none" stroke="#000000" stroke-width="16" stroke-miterlimit="10" d="M262.732,104.958
	c-32.657,35.692,31.788,83.471,83.906,56.087c32.995-15.775,54.271-33.38,46.265-50.34c-5.835-9.521-37.933-2.163-59.893,8.754
	c-37.2,18.493-60.813,55.746-46.07,80.624c14.743,24.878,60.805,22.904,87.534,11.099c26.73-11.805,55.83-29.374,46.993-44.27
	c-7.9-12.155-43.989-1.191-65.421,9.674c-33.623,17.047-54.363,51.139-40.403,76.962c10.406,19.251,52.261,30.051,82.678,16.371
	c32.36-14.552,56.847-32.675,52.016-44.805c-6.226-15.512-52.039-1.567-69.873,8.378c-29.742,16.584-50.678,56.429-36.568,78.65
	c16.604,26.149,65.607,22.303,82.99,13.983c24.597-10.562,55.926-29.604,50.327-45.421c-3.924-11.212-43.636-7.688-64.737,4.453
	c-33.631,19.35-50.439,60.752-39.383,80.316c11.057,19.566,51.699,30.491,91.021,10.488c28.62-14.559,46.61-33.063,40.16-43.197
	c-6.449-10.137-44.826-0.097-67.248,12.261c-29.283,16.139-52.671,59.871-30.866,82.302"/>
<g>
	
		<line fill="none" stroke="#000000" stroke-width="4" stroke-miterlimit="10" x1="831.563" y1="80.651" x2="1061.563" y2="545.037"/>
	<line fill="none" stroke="#000000" stroke-width="4" stroke-miterlimit="10" x1="673.563" y1="140.651" x2="922.159" y2="621.65"/>
</g>
</svg>
