<?xml version="1.0" encoding="UTF-8" standalone="no"?>
<svg
   xmlns:dc="http://purl.org/dc/elements/1.1/"
   xmlns:cc="http://creativecommons.org/ns#"
   xmlns:rdf="http://www.w3.org/1999/02/22-rdf-syntax-ns#"
   xmlns:svg="http://www.w3.org/2000/svg"
   xmlns="http://www.w3.org/2000/svg"
   xmlns:sodipodi="http://sodipodi.sourceforge.net/DTD/sodipodi-0.dtd"
   xmlns:inkscape="http://www.inkscape.org/namespaces/inkscape"
   version="1.1"
   id="Ebene_1"
   x="0px"
   y="0px"
   viewBox="0 0 140 140"
   xml:space="preserve"
   sodipodi:docname="user-icon.svg"
   inkscape:version="1.0.1 (0767f8302a, 2020-10-17)"
   width="140"
   height="140"><metadata
   id="metadata23"><rdf:RDF><cc:Work
       rdf:about=""><dc:format>image/svg+xml</dc:format><dc:type
         rdf:resource="http://purl.org/dc/dcmitype/StillImage" /><dc:title></dc:title></cc:Work></rdf:RDF></metadata><defs
   id="defs21" /><sodipodi:namedview
   pagecolor="#ffffff"
   bordercolor="#666666"
   borderopacity="1"
   objecttolerance="10"
   gridtolerance="10"
   guidetolerance="10"
   inkscape:pageopacity="0"
   inkscape:pageshadow="2"
   inkscape:window-width="1851"
   inkscape:window-height="1016"
   id="namedview19"
   showgrid="false"
   inkscape:zoom="7.5486347"
   inkscape:cx="62.257154"
   inkscape:cy="71.618239"
   inkscape:window-x="69"
   inkscape:window-y="27"
   inkscape:window-maximized="1"
   inkscape:current-layer="g838"
   inkscape:document-rotation="0" />
<style
   type="text/css"
   id="style2">
	.st0{stroke:#FFFFFF;stroke-width:2.5;stroke-miterlimit:10;}
</style>
<g
   id="g8"
   transform="matrix(-0.87395307,0,0,0.87395307,112.66495,11.080448)">
	<line
   x1="13"
   y1="105.8"
   x2="13"
   y2="54.400002"
   id="line4" />
	<rect
   x="10.5"
   y="54.400002"
   width="5"
   height="51.400002"
   id="rect6" />
</g>
<g
   id="g12"
   transform="matrix(-0.87395307,0,0,0.87395307,112.66495,11.080448)">
	<circle
   cx="48.799999"
   cy="16.6"
   r="16.6"
   id="circle10" />
</g>
<path
   id="path14"
   style="stroke-width:0.873953"
   d="M 39.601562 93.669922 C 36.979703 93.669922 34.794922 95.854699 34.794922 98.476562 L 34.794922 108.17578 C 34.794922 110.79764 36.979703 112.98242 39.601562 112.98242 L 67.4375 112.98242 L 70.056641 103.72461 L 60.976562 106.06641 L 61.060547 106.04102 C 60.482138 106.23382 59.697894 106.36759 58.658203 106.53711 C 57.618512 106.70658 56.624785 106.87338 55.753906 106.80078 L 55.75 106.80078 L 55.744141 106.79883 C 54.795298 106.71257 53.644199 106.62885 52.478516 106.20898 C 46.660109 104.4407 42.736296 99.369662 42.15625 93.669922 L 39.601562 93.669922 z M 44.654297 93.669922 C 45.211961 98.312743 48.452104 102.39579 53.246094 103.83398 L 53.279297 103.84375 L 53.314453 103.85547 C 54.061517 104.12713 54.996567 104.22089 55.960938 104.30859 C 56.138802 104.32342 57.287411 104.22853 58.257812 104.07031 C 59.228214 103.91209 60.323571 103.65192 60.269531 103.66992 L 60.310547 103.65625 L 73.646484 100.21875 L 70.037109 112.98242 L 85.539062 112.98242 L 90.972656 93.669922 L 44.654297 93.669922 z M 93.568359 93.669922 L 88.134766 112.98242 L 105.49805 112.98242 C 108.11991 112.98242 110.30469 110.79764 110.30469 108.17578 L 110.30469 98.476562 C 110.30469 95.854699 108.11991 93.669922 105.49805 93.669922 L 93.568359 93.669922 z " />
<g
   id="g838"
   style="opacity:1"><path
     id="path840"
     style="color:#000000;font-style:normal;font-variant:normal;font-weight:normal;font-stretch:normal;font-size:medium;line-height:normal;font-family:sans-serif;font-variant-ligatures:normal;font-variant-position:normal;font-variant-caps:normal;font-variant-numeric:normal;font-variant-alternates:normal;font-variant-east-asian:normal;font-feature-settings:normal;font-variation-settings:normal;text-indent:0;text-align:start;text-decoration:none;text-decoration-line:none;text-decoration-style:solid;text-decoration-color:#000000;letter-spacing:normal;word-spacing:normal;text-transform:none;writing-mode:lr-tb;direction:ltr;text-orientation:mixed;dominant-baseline:auto;baseline-shift:baseline;text-anchor:start;white-space:normal;shape-padding:0;shape-margin:0;inline-size:0;clip-rule:nonzero;display:inline;overflow:visible;visibility:visible;isolation:auto;mix-blend-mode:normal;color-interpolation:sRGB;color-interpolation-filters:linearRGB;solid-color:#000000;solid-opacity:1;vector-effect:none;fill:#000000;fill-opacity:1;fill-rule:nonzero;stroke:none;stroke-width:2.5;stroke-linecap:butt;stroke-linejoin:miter;stroke-miterlimit:10;stroke-dasharray:none;stroke-dashoffset:0;stroke-opacity:1.0;color-rendering:auto;image-rendering:auto;shape-rendering:auto;text-rendering:auto;enable-background:accumulate;stop-color:#000000;stop-opacity:1;"
     d="M 66.818359 43.306641 C 66.428596 43.315756 66.04121 43.344307 65.658203 43.390625 C 61.051612 43.947707 57.030716 47.132313 55.662109 51.888672 L 45.001953 89.019531 C 43.255989 95.36849 46.887894 101.92652 53.246094 103.83398 L 53.279297 103.84375 L 53.314453 103.85547 C 54.061517 104.12713 54.996568 104.22086 55.960938 104.30859 C 56.138802 104.32342 57.287411 104.22853 58.257812 104.07031 C 59.228215 103.91209 60.323568 103.65191 60.269531 103.66992 L 60.310547 103.65625 L 73.646484 100.21875 L 68.160156 119.61523 L 68.160156 119.61719 C 67.033826 123.5969 69.34367 127.69459 73.328125 128.82227 L 73.355469 128.83008 L 73.382812 128.83984 C 74.011265 129.04932 74.653696 129.125 75.347656 129.125 C 78.543637 129.125 81.635991 126.94863 82.53125 123.66602 L 82.533203 123.66211 L 91.537109 91.662109 L 91.539062 91.65625 C 92.278941 89.140667 91.543275 86.372889 89.660156 84.408203 C 87.683448 82.437429 85.026919 81.704407 82.388672 82.382812 L 70.736328 85.375 L 75.923828 67.556641 L 82.296875 73.248047 L 82.298828 73.248047 C 83.732901 74.531164 85.535325 75.201172 87.320312 75.201172 C 88.264145 75.201172 89.243411 74.981586 90.160156 74.599609 L 90.164062 74.597656 L 105.72266 68.216797 C 109.54528 66.642776 111.34012 62.233652 109.76172 58.400391 L 109.75977 58.396484 L 109.75781 58.392578 C 108.17692 54.477978 103.77662 52.695037 99.943359 54.273438 L 88.814453 58.855469 L 75.501953 46.818359 C 75.499731 46.816479 75.498314 46.816331 75.496094 46.814453 C 73.309796 44.96534 71.942157 44.221645 70.371094 43.748047 C 69.181811 43.422227 67.987651 43.279293 66.818359 43.306641 z " /></g>
</svg>
