<svg xmlns="http://www.w3.org/2000/svg" xmlns:xlink="http://www.w3.org/1999/xlink" version="1.1" x="0px" y="0px" viewBox="0 0 32 40" enable-background="new 0 0 32 32" xml:space="preserve"><path d="M24.751,16c-0.009,4.832-3.918,8.742-8.75,8.75c-2.515,0-4.768-1.062-6.365-2.762l2.068-1.443l-7.901-3.703  l0.744,8.695l2.193-1.529c2.244,2.594,5.562,4.242,9.26,4.242c6.768,0,12.249-5.482,12.249-12.25H24.751z M16.001,7.251  c2.517,0,4.769,1.065,6.367,2.764L20.3,11.458l7.901,3.701l-0.746-8.693l-2.191,1.529c-2.246-2.594-5.562-4.245-9.263-4.245  C9.236,3.751,3.752,9.235,3.751,16h3.501C7.26,11.169,11.17,7.259,16.001,7.251z"/><text x="0" y="47" fill="#000000" font-size="5px" font-weight="bold" font-family="'Helvetica Neue', Helvetica, Arial-Unicode, Arial, Sans-serif">Created by Dmitry Baranovskiy</text><text x="0" y="52" fill="#000000" font-size="5px" font-weight="bold" font-family="'Helvetica Neue', Helvetica, Arial-Unicode, Arial, Sans-serif">from the Noun Project</text></svg>