<?xml version="1.0" encoding="utf-8"?>
<!-- Generator: Adobe Illustrator 24.3.0, SVG Export Plug-In . SVG Version: 6.00 Build 0)  -->
<svg version="1.1" id="Ebene_1" xmlns="http://www.w3.org/2000/svg" xmlns:xlink="http://www.w3.org/1999/xlink" x="0px" y="0px"
	 viewBox="0 0 200 200" style="enable-background:new 0 0 200 200;" xml:space="preserve">
<style type="text/css">
	.st0{stroke:#FFFFFF;stroke-width:2.5;stroke-miterlimit:10;}
</style>
<path d="M18,171.7h162.8c3.7,0,6.8-2.9,6.8-6.5l0.6-56.4c0-4.5-4.7-7.7-9.1-6.2L15.6,159.1C8.5,161.6,10.3,171.7,18,171.7z"/>
<circle class="st0" cx="137.8" cy="83.6" r="42.9"/>
<g>
	<path class="st0" d="M30.5,164c-1,0-1.9-0.1-2.9-0.4c-5.3-1.6-8.3-7.2-6.7-12.5l15.6-51.6c1.6-5.3,7.2-8.3,12.5-6.7
		c5.3,1.6,8.3,7.2,6.7,12.5L40,156.9C38.7,161.3,34.8,164,30.5,164z"/>
</g>
<circle cx="65.7" cy="42.2" r="16.6"/>
<path class="st0" d="M121,69.6c-2-5.2-7.8-7.7-12.9-5.8l-22.3,8.5L64.7,61.5c-0.4-0.2-0.8-0.4-1.1-0.5c-0.5-0.2-1-0.4-1.6-0.5
	C54,58.3,45.8,63,43.6,71l-7.9,29c-2.2,8,2.5,16.2,10.5,18.4c0.4,0.1,0.7,0.2,1.1,0.3c0.6,0.2,1.3,0.3,2,0.4l22.7,1.7l-0.8,16.8
	c-0.3,5.5,4,10.2,9.5,10.4c0.2,0,0.3,0,0.5,0c5.3,0,9.7-4.2,10-9.5l1.2-26.5c0.2-5.4-3.9-10-9.2-10.4l-16.4-1.2l3.6-13.3l10.3,5.3
	c1.4,0.7,3,1.1,4.6,1.1c1.2,0,2.4-0.2,3.6-0.7l26.5-10.1C120.4,80.5,123,74.7,121,69.6z"/>
</svg>
