<?xml version="1.0" encoding="utf-8"?>
<!-- Generator: Adobe Illustrator 24.3.0, SVG Export Plug-In . SVG Version: 6.00 Build 0)  -->
<svg version="1.1" id="Ebene_1" xmlns="http://www.w3.org/2000/svg" xmlns:xlink="http://www.w3.org/1999/xlink" x="0px" y="0px"
	 viewBox="0 0 200 200" style="enable-background:new 0 0 200 200;" xml:space="preserve">
<style type="text/css">
	.st0{fill:#FFFFFF;}
</style>
<g>
	<path class="st0" d="M142.4,164H53c-2.7,0-4.6-2.6-3.8-5.1l35-116.1c0.5-1.7,2-2.8,3.8-2.8h19.5c1.7,0,3.3,1.1,3.8,2.8l35,116.1
		C147,161.5,145.1,164,142.4,164z"/>
	<path d="M142.4,166.5H53c-2.1,0-4-1-5.2-2.6c-1.2-1.7-1.6-3.7-1-5.7l35-116.1c0.8-2.8,3.3-4.6,6.2-4.6h19.5c2.9,0,5.4,1.8,6.2,4.6
		l35,116.1c0.6,2,0.2,4.1-1,5.7C146.4,165.6,144.5,166.5,142.4,166.5z M88,42.5c-0.7,0-1.2,0.4-1.4,1l-35,116.1
		c-0.2,0.6,0.1,1.1,0.2,1.3c0.2,0.2,0.5,0.6,1.2,0.6h89.4c0.6,0,1-0.4,1.2-0.6c0.2-0.2,0.4-0.7,0.2-1.3l-35-116.1
		c-0.2-0.6-0.8-1-1.4-1H88z"/>
</g>
<g>
	<polyline points="92.3,39.7 103,39.7 103,139.4 92.3,139.4 	"/>
</g>
<g>
	<path d="M94.9,140.9L94.9,140.9c-2.6-1.3-3.6-4.4-2.3-7L141.5,37c1.3-2.6,4.4-3.6,7-2.3l0,0c2.6,1.3,3.6,4.4,2.3,7l-48.9,96.9
		C100.6,141.2,97.5,142.2,94.9,140.9z"/>
	<path class="st0" d="M97.2,142.7c-1,0-2-0.2-2.9-0.7l0,0c-3.2-1.6-4.5-5.5-2.9-8.7l48.9-96.9c0.8-1.5,2.1-2.7,3.7-3.2
		c1.6-0.5,3.4-0.4,4.9,0.4c1.5,0.8,2.7,2.1,3.2,3.7c0.5,1.6,0.4,3.4-0.4,4.9L103,139.2C101.9,141.4,99.6,142.7,97.2,142.7z
		 M95.5,139.8c1.9,1,4.3,0.2,5.3-1.7l48.9-96.9c0.5-0.9,0.6-2,0.2-3c-0.3-1-1-1.8-2-2.3c-0.9-0.5-2-0.6-3-0.2c-1,0.3-1.8,1-2.3,2
		l-48.9,96.9C92.7,136.5,93.5,138.8,95.5,139.8L95.5,139.8z"/>
</g>
<g>
	<circle cx="136.3" cy="59.2" r="11.7"/>
</g>
<g>
	<path d="M138.3,132.3l7.7,24.5c1.4,4.6-0.3,7.2-5.1,7.2l-86.1-0.2c-4.8,0-5.9-4.5-4.5-9.1l6.8-22.3L138.3,132.3z"/>
</g>
</svg>
